<svg width="1732" height="1256" viewBox="0 0 1732 1256" fill="none" xmlns="http://www.w3.org/2000/svg">
<g filter="url(#filter0_d_10_204)">
<path d="M673.094 192.511C703.543 162.468 737.036 135.676 773.032 112.567C909.632 24.5925 1075.58 -5.51538 1234.38 28.8663C1393.18 63.2481 1531.82 159.303 1619.79 295.901C1663.24 363.612 1692.93 439.217 1707.16 518.401C1721.39 597.584 1719.88 678.795 1702.72 757.396C1685.57 835.998 1653.1 910.45 1607.17 976.503C1561.24 1042.56 1502.75 1098.91 1435.04 1142.36C1319.18 1216.93 1181.59 1250.3 1044.45 1237.1C907.313 1223.9 778.614 1164.9 679.107 1069.61C575.69 1114.09 459.852 1120.47 352.18 1087.6C244.509 1054.73 151.978 984.752 91.0319 890.099C57.2862 837.508 34.2297 778.785 23.1787 717.282C12.1277 655.78 13.2987 592.704 26.6247 531.654C39.9508 470.604 65.1711 412.777 100.845 361.474C136.52 310.172 181.95 266.398 234.541 232.652C299 191.126 372.538 165.791 448.895 158.802C525.252 151.813 602.168 163.377 673.094 192.511Z" fill="#F15BB5"/>
</g>
<defs>
<filter id="filter0_d_10_204" x="0.678345" y="0.990601" width="1731.14" height="1254.93" filterUnits="userSpaceOnUse" color-interpolation-filters="sRGB">
<feFlood flood-opacity="0" result="BackgroundImageFix"/>
<feColorMatrix in="SourceAlpha" type="matrix" values="0 0 0 0 0 0 0 0 0 0 0 0 0 0 0 0 0 0 127 0" result="hardAlpha"/>
<feOffset dy="1"/>
<feGaussianBlur stdDeviation="7.5"/>
<feComposite in2="hardAlpha" operator="out"/>
<feColorMatrix type="matrix" values="0 0 0 0 0.945098 0 0 0 0 0.356863 0 0 0 0 0.709804 0 0 0 0.75 0"/>
<feBlend mode="normal" in2="BackgroundImageFix" result="effect1_dropShadow_10_204"/>
<feBlend mode="normal" in="SourceGraphic" in2="effect1_dropShadow_10_204" result="shape"/>
</filter>
</defs>
</svg>
