<svg width="1710" height="1234" viewBox="0 0 1710 1234" fill="none" xmlns="http://www.w3.org/2000/svg">
<g filter="url(#filter0_d_10_204)">
<path d="M662.094 178.511C692.543 148.468 726.036 121.676 762.032 98.5668C898.632 10.5925 1064.58 -19.5154 1223.38 14.8663C1382.18 49.2481 1520.82 145.303 1608.79 281.901C1652.24 349.612 1681.93 425.217 1696.16 504.401C1710.39 583.584 1708.88 664.795 1691.72 743.396C1674.57 821.998 1642.1 896.45 1596.17 962.503C1550.24 1028.56 1491.75 1084.91 1424.04 1128.36C1308.18 1202.93 1170.59 1236.3 1033.45 1223.1C896.313 1209.9 767.614 1150.9 668.107 1055.61C564.69 1100.09 448.852 1106.47 341.18 1073.6C233.509 1040.73 140.978 970.752 80.0319 876.099C46.2862 823.508 23.2297 764.785 12.1787 703.282C1.12772 641.78 2.29863 578.704 15.6247 517.654C28.9508 456.604 54.1711 398.777 89.8455 347.475C125.52 296.172 170.95 252.398 223.541 218.652C288 177.126 361.538 151.791 437.895 144.802C514.252 137.813 591.168 149.377 662.094 178.511Z" fill="#F15BB5"/>
</g>
<defs>
<filter id="filter0_d_10_204" x="0.678345" y="0.990601" width="1709.14" height="1232.93" filterUnits="userSpaceOnUse" color-interpolation-filters="sRGB">
<feFlood flood-opacity="0" result="BackgroundImageFix"/>
<feColorMatrix in="SourceAlpha" type="matrix" values="0 0 0 0 0 0 0 0 0 0 0 0 0 0 0 0 0 0 127 0" result="hardAlpha"/>
<feOffset dy="4"/>
<feGaussianBlur stdDeviation="2"/>
<feComposite in2="hardAlpha" operator="out"/>
<feColorMatrix type="matrix" values="0 0 0 0 0 0 0 0 0 0 0 0 0 0 0 0 0 0 0.25 0"/>
<feBlend mode="normal" in2="BackgroundImageFix" result="effect1_dropShadow_10_204"/>
<feBlend mode="normal" in="SourceGraphic" in2="effect1_dropShadow_10_204" result="shape"/>
</filter>
</defs>
</svg>
